<svg xmlns="http://www.w3.org/2000/svg" width="196" height="46" fill="none"><path stroke="#6b7560" stroke-width="1.65" d="M9 28.43a30.7 30.7 0 0 1 0-15.55Q11 6.67 9 2m10 26.43q-2-10.88 0-18.66 2-6.21 0-9.32m10 27.98a30.7 30.7 0 0 0 0-15.55Q27 6.67 29 2"/><ellipse cx="19" cy="37.76" fill="#faf6f1" rx="14" ry="7.46"/><ellipse cx="19" cy="29.13" fill="#d9d9d9" stroke="#a84a32" stroke-width="1.2" rx="15" ry="7.77"/><ellipse cx="12" cy="41.73" fill="#fff" opacity=".2" rx="4" ry="3.89"/><path fill="#2c2416" d="M49.83 25.65v-2.5h.8q.58 0 .94-.15.37-.15.58-.43.22-.3.37-.72l.18-.48L47.4 10.9h3.18l3.43 7.16 2.86-7.16h3.14L55 22.6a9 9 0 0 1-.86 1.5q-.48.69-1.25 1.12a4 4 0 0 1-1.96.43zm17.02-6.8v2.4h-5.91v-2.4zm-3.58-4.31v10.9h-3.01v-10.9zm6.85 11.12a4.84 4.84 0 0 1-4.62-2.73 6.5 6.5 0 0 1-.63-2.93q0-1.66.63-2.92a5 5 0 0 1 1.82-1.97 5.3 5.3 0 0 1 2.8-.71 5.3 5.3 0 0 1 2.8.7 4.7 4.7 0 0 1 1.81 1.98q.64 1.27.64 2.92t-.64 2.93a5 5 0 0 1-1.81 2q-1.17.73-2.8.73m0-2.44q.84 0 1.37-.42.52-.42.76-1.14a5 5 0 0 0 .24-1.66q0-.93-.24-1.65a2.4 2.4 0 0 0-.76-1.14q-.52-.4-1.37-.4-.84 0-1.36.4t-.78 1.13a5 5 0 0 0-.24 1.66q0 .94.24 1.66.25.72.78 1.14.52.42 1.36.42m6.25-6.3v-2.38h9.89v2.38h-3.52v8.53h-2.88v-8.53zm19.31 1.86v2.38h-5.7v-2.38zm-4.7-4.24v10.9H88.1v-10.9zm6.6 0v10.9H94.7v-10.9zm5.46 11.11q-1.05 0-1.86-.36a3 3 0 0 1-1.3-1.09 3.3 3.3 0 0 1-.47-1.8q0-.9.34-1.53.33-.61.9-1a4 4 0 0 1 1.31-.56q.75-.2 1.55-.27l1.54-.18q.59-.1.84-.27a.6.6 0 0 0 .27-.53v-.04q0-.68-.43-1.05a1.8 1.8 0 0 0-1.2-.37q-.8 0-1.3.37-.48.34-.63.9l-2.8-.24a3.8 3.8 0 0 1 2.45-2.84q1-.4 2.3-.4.9 0 1.74.22.84.21 1.48.66a3.2 3.2 0 0 1 1.41 2.82v7.36h-2.87v-1.52h-.08a3 3 0 0 1-1.77 1.5q-.6.22-1.42.22m.86-2.09q.67 0 1.18-.26.51-.27.8-.72t.3-1.03v-1.16q-.15.1-.4.17a7 7 0 0 1-1.15.24l-.56.08q-.52.07-.93.25-.4.17-.61.46-.22.29-.22.71 0 .62.44.94.45.33 1.15.32m14.02 1.89V16.9h-2.05q-.82 0-1.26.38-.43.39-.43.91 0 .54.42.9.42.37 1.25.37h3.08v2.04h-3.08q-1.4 0-2.43-.42a3.6 3.6 0 0 1-1.57-1.2 3 3 0 0 1-.55-1.77q0-1.07.55-1.87.56-.81 1.58-1.26 1.04-.45 2.44-.45h4.87v10.9zm-6.93 0 3.03-5.69h2.9l-3.03 5.69z"/><path fill="#c45c3e" d="M132.32 25.82v-10.9h2.57v4.4h.94l3.28-4.4h3.1l-4.04 5.35 4.08 5.55h-3.11l-3-4.11h-1.25v4.11zm13.1 4.1a5 5 0 0 1-1.67-.28l.6-2q.55.16 1 .16t.77-.28q.34-.27.57-.88l.22-.6-3.95-11.13h2.73l2.51 8.24h.11l2.53-8.24h2.73l-4.37 12.23q-.3.86-.8 1.49-.51.62-1.24.95t-1.74.33m12.03-15 2.2 4.02 2.24-4.03h2.72l-3.29 5.46 3.35 5.45h-2.7l-2.32-3.93-2.28 3.93h-2.73l3.32-5.45-3.24-5.46zm16.64 4.38v2.11h-5.8v-2.1zm-5.01-4.39v10.91h-2.48v-10.9zm6.7 0v10.91h-2.48v-10.9zm9.04 10.91V17h-2.32q-.9 0-1.37.41-.47.42-.47 1.02 0 .62.45 1.01.45.4 1.3.4h3.22v1.88h-3.22q-1.3 0-2.26-.42a3.06 3.06 0 0 1-1.97-2.93q0-1.05.51-1.82a3.4 3.4 0 0 1 1.5-1.2 6 6 0 0 1 2.3-.44h4.74v10.91zm-7.04 0 3.05-5.6h2.53l-3.05 5.6z"/></svg>